<?xml version="1.0" encoding="UTF-8" standalone="no"?>
<!-- Created with Inkscape (http://www.inkscape.org/) -->

<svg
   width="48"
   height="48"
   viewBox="0 0 12.7 12.7"
   version="1.1"
   id="svg5"
   xml:space="preserve"
   inkscape:version="1.2.1 (0f2f062aeb, 2022-09-21, custom)"
   sodipodi:docname="icon.svg"
   xmlns:inkscape="http://www.inkscape.org/namespaces/inkscape"
   xmlns:sodipodi="http://sodipodi.sourceforge.net/DTD/sodipodi-0.dtd"
   xmlns="http://www.w3.org/2000/svg"
   xmlns:svg="http://www.w3.org/2000/svg"
   xmlns:rdf="http://www.w3.org/1999/02/22-rdf-syntax-ns#"
   xmlns:cc="http://creativecommons.org/ns#"><sodipodi:namedview
     id="namedview7"
     pagecolor="#ffffff"
     bordercolor="#000000"
     borderopacity="0.25"
     inkscape:showpageshadow="2"
     inkscape:pageopacity="0.0"
     inkscape:pagecheckerboard="true"
     inkscape:deskcolor="#d1d1d1"
     inkscape:document-units="mm"
     showgrid="false"
     inkscape:zoom="7.319248"
     inkscape:cx="-33.678323"
     inkscape:cy="34.224827"
     inkscape:window-width="2486"
     inkscape:window-height="1376"
     inkscape:window-x="74"
     inkscape:window-y="27"
     inkscape:window-maximized="1"
     inkscape:current-layer="layer1" /><defs
     id="defs2" /><g
     inkscape:label="Layer 1"
     inkscape:groupmode="layer"
     id="layer1"><path
       id="path316"
       style="fill:#a80146;fill-opacity:1;stroke-width:0.0306207"
       d="m 5.6547638,0.61054823 -0.053593,0.0842037 c -0.029431,0.0463259 -0.067672,0.0943235 -0.084931,0.10669491 -0.018712,0.0134441 -0.012444,0.0227086 0.015533,0.0229811 0.00181,2.725e-5 0.00454,-6.7221e-4 0.00726,-9.0833e-4 -0.012989,0.00545 -0.026978,0.010082 -0.042511,0.0131716 -0.00817,0.001813 -0.032701,0.002725 -0.065401,0.004538 0.00272,-0.001813 -0.00181,-0.004538 -0.014988,-0.007263 -0.037878,-0.007263 -0.0999,-0.007263 -0.1377877,0 -0.024798,0.004538 -0.017713,0.009086 0.00963,0.0110818 -0.2531302,0.006362 -0.705943,0.0104488 -1.2153189,0.0104488 H 2.7444898 V 1.5301746 c 0,0.5722701 0.00817,0.7465008 0.08802,0.8604898 -0.032882,-0.035153 -0.057317,-0.052684 -0.057317,-0.038514 0,0.06195 0.2206111,0.2442193 0.3312664,0.273668 0.06204,0.016532 0.3883199,0.028795 0.7251455,0.027251 l 0.5861587,-0.00272 c 0.061314,0.00364 0.113344,0.00817 0.1455087,0.012989 0.022255,0.00364 0.044055,0.00726 0.065583,0.011536 -0.050051,-0.00545 -0.02071,0.010082 0.1138073,0.059134 0.220375,0.08048 0.3679729,0.1875926 0.4819164,0.3499239 0.038695,0.055137 0.076755,0.093824 0.084567,0.086021 9.083e-4,-9.083e-4 9.083e-4,-0.00272 0.00181,-0.00364 0.030521,0.059588 0.053865,0.1226637 0.069398,0.1882738 -0.010718,-0.013989 -0.019075,0.064856 -0.018803,0.1870748 4.632e-4,0.2563458 -0.040604,0.3717335 -0.1935968,0.5436299 -0.043874,0.049323 -0.053229,0.066764 -0.030521,0.052684 -0.011354,0.00817 -0.022255,0.016804 -0.03488,0.025706 -0.019711,0.013898 -0.037424,0.02498 -0.055047,0.034427 0.00454,-0.012626 -0.044237,-0.010355 -0.1276324,0.00636 -0.1492329,0.030612 -0.3427389,0.00817 -0.5062511,-0.057408 -0.0337,-0.013625 -0.051958,-0.014352 -0.040513,-0.00181 0.00909,0.010082 0.050686,0.031157 0.09981,0.051503 -0.050323,-0.017077 -0.09574,-0.039604 -0.1372518,-0.068217 0.00454,-0.00817 -0.019802,-0.035244 -0.082751,-0.090745 l -0.068308,-0.060133 -0.069943,-0.091743 -0.677239,0.00817 -0.6772482,0.00817 v 0.518584 0.518641 l 0.091862,0.021165 c 0.02171,0.00545 0.087565,0.015897 0.1714057,0.028976 -0.1327009,-0.015805 -0.2615959,-0.027432 -0.2688899,-0.020165 -0.00726,0.00726 0.073122,0.027251 0.1795446,0.043601 0.2068223,0.031702 0.4109651,0.045145 0.3899913,0.025616 -0.00272,-0.00272 -0.01417,-0.00545 -0.031519,-0.00944 0.049142,0.00726 0.09029,0.013444 0.1412667,0.020529 0.012263,0.00181 0.028341,0.00364 0.041057,0.00545 -0.026796,-0.00272 -0.057953,-9.083e-4 -0.079299,0.00454 -0.029522,0.00726 -0.00545,0.013989 0.053593,0.013989 0.058952,0 0.083024,-0.00636 0.053593,-0.013989 -0.00454,-9.083e-4 -0.010991,-0.00181 -0.016895,-0.00272 0.1347901,0.018803 0.2819248,0.039786 0.4267159,0.06095 -0.00636,-1.273e-4 -0.013989,-6.177e-4 -0.019439,-4.815e-4 -0.089927,0.00181 -0.089654,0.00272 0.015351,0.024798 v 6.36e-5 c 0.058952,0.012444 0.1554006,0.0228 0.2143435,0.023072 l 0.1071673,4.723e-4 -0.00909,-0.00181 c 0.01526,0.00272 0.041421,0.00636 0.054955,0.00817 v 6.36e-5 c 0.013898,0.00181 0.023617,0.00364 0.036879,0.00545 -0.010628,9.083e-4 -0.020801,0.00272 -0.029249,0.00454 -0.029431,0.00726 -0.00545,0.013989 0.053593,0.013989 0.033337,0 0.055046,-0.00181 0.062676,-0.00545 0.047688,0.00726 0.090653,0.013262 0.1290584,0.018439 -0.00545,9.084e-4 -0.011082,0.00272 -0.015714,0.00454 -0.021074,0.00817 -0.00364,0.015442 0.038241,0.015442 0.033337,0 0.050141,-0.00454 0.045599,-0.010449 0.2517312,0.029067 0.2950959,-0.00545 0.4720518,-0.1485608 0.1115636,-0.090108 0.3266337,-0.2563819 0.4779649,-0.3694171 0.025343,-0.018894 0.029339,-0.022255 0.053683,-0.040513 -0.026706,0.021255 -0.051686,0.041784 -0.070851,0.059134 -0.1003276,0.090944 -0.059769,0.066401 0.1808526,-0.1089021 0.1071175,-0.078027 0.1854264,-0.14192 0.1739813,-0.14192 -0.016804,0 -0.1077214,0.060496 -0.19862,0.1272691 0.070488,-0.053138 0.1677269,-0.1258974 0.1820516,-0.137379 0.010628,-0.00817 0.04678,-0.035516 0.070851,-0.053865 -0.020892,0.01953 -0.030521,0.033337 -0.020256,0.033337 0.015533,0 0.075938,-0.042874 0.1342633,-0.095277 0.080116,-0.072032 0.084295,-0.084386 0.022255,-0.041784 0.2209471,-0.166437 0.7403965,-0.5733237 0.8743057,-0.68496 -0.034608,0.034063 -0.05332,0.056499 -0.04451,0.056499 0.077392,0 0.7971776,-0.731949 0.9635329,-0.9798652 C 8.0372855,2.4411509 8.0708037,2.3681013 7.978697,2.4873769 8.018846,2.4265169 8.042099,2.3810998 8.042099,2.3583728 c 0,-3.179e-4 1.725e-4,-5.813e-4 1.817e-4,-8.992e-4 4.087e-4,0.015987 0.00636,0.028976 0.013353,0.028976 0.00726,0 0.021982,-0.013807 0.032428,-0.030612 0.010449,-0.016804 0.00454,-0.030612 -0.013534,-0.030612 -0.012172,0 -0.022345,0.00636 -0.027886,0.015987 0.00454,-0.00944 0.012899,-0.015987 0.022527,-0.015987 0.012808,0 0.028613,-0.018258 0.038514,-0.041966 0.00636,0.00181 0.029339,-0.029976 0.056954,-0.080389 0.032247,-0.058952 0.058679,-0.1209561 0.058679,-0.1377968 0,-0.016804 -0.026433,0.017621 -0.058679,0.076574 -0.00364,0.00636 -0.00636,0.012535 -0.00972,0.018803 0.022345,-0.055409 0.050867,-0.1243805 0.080298,-0.1938329 0.2007191,-0.4727439 0.313282,-1.25851271 0.1872028,-1.30689153 -0.026615,-0.0101763 -0.6525955,-0.0186213 -1.39103,-0.0186213 -1.1797388,0 -1.3484467,0.00545 -1.3907305,0.0481422 -0.00636,0.006362 -0.012808,0.0139891 -0.01853,0.0216187 l 0.02607,-0.0691258 1.3883323,-0.008175 1.3883959,-0.008175 -1.3848624,-0.007263 z m 3.9149641,0.0339718 c -0.0555,-1.813e-5 -0.1121995,0.001813 -0.1566903,0.004538 v -6.361e-5 c -0.089018,0.006362 -0.02398,0.0113543 0.1444276,0.0114455 0.1684173,8.175e-5 0.2412035,-0.004538 0.1617773,-0.0112631 -0.039695,-0.002725 -0.094014,-0.004538 -0.1495146,-0.004538 z m 0.3974667,5.4508e-4 c -0.01662,-2.0898e-4 -0.03443,0.001813 -0.04932,0.00545 -0.02979,0.008175 -0.01281,0.0147153 0.0377,0.0152603 0.0505,6.2672e-4 0.07494,-0.00545 0.05423,-0.0140792 -0.01035,-0.004538 -0.02589,-0.006362 -0.04251,-0.006362 z m -0.05614,0.0303393 c -0.06395,-3.637e-5 -0.14678,9.0832e-4 -0.2540563,0.002725 l -0.4669647,0.008175 -0.019257,0.2538749 c 9.083e-4,-0.0437824 -3.816e-4,-0.0901083 -0.00454,-0.12368102 -0.00636,-0.0546829 -0.012353,-0.009988 -0.012353,0.0995185 0,0.0930334 0.00364,0.13506261 0.00944,0.11327131 -0.00636,0.072941 -0.014893,0.1464535 -0.025339,0.2202115 -8.902e-4,-0.00636 -0.00181,-0.013171 -0.00364,-0.019075 -0.00817,-0.029794 -0.014624,-0.012808 -0.01526,0.037788 -4.178e-4,0.033882 0.00272,0.055592 0.00636,0.060224 -0.00636,0.038241 -0.012626,0.076392 -0.019711,0.1145248 2.72e-5,-0.00181 3.088e-4,-0.00454 2.997e-4,-0.00636 -5.177e-4,-0.068762 -0.00272,-0.067218 -0.02389,0.015351 -0.012899,0.050504 -0.023617,0.1194209 -0.02389,0.1531025 -2.907e-4,0.031157 0.00181,0.038241 0.00909,0.024616 -0.017531,0.077028 -0.036788,0.1531934 -0.057861,0.2278599 9.083e-4,-0.012989 -0.00817,0.00364 -0.030884,0.053683 -0.022981,0.050504 -0.050232,0.1263153 -0.060586,0.1684174 -0.015079,0.061495 -0.010537,0.058498 0.022981,-0.015351 0.00817,-0.01744 0.016078,-0.039241 0.024162,-0.060315 -0.028522,0.088746 -0.059315,0.174576 -0.092343,0.2563821 0.013807,-0.03915 0.022345,-0.071851 0.016986,-0.0773 -0.00636,-0.00636 -0.034063,0.042874 -0.060588,0.1104555 -0.026523,0.067581 -0.041784,0.1228452 -0.033882,0.1228452 0.00545,0 0.014352,-0.013444 0.025161,-0.033518 -0.015624,0.034608 -0.031611,0.06849 -0.047961,0.1011357 -0.00454,0.00909 -0.011354,0.021255 -0.016895,0.031611 0.012172,-0.02825 0.018985,-0.049505 0.014807,-0.053774 -0.00545,-0.00545 -0.048415,0.059134 -0.095513,0.1435376 -0.047143,0.084386 -0.070942,0.1443279 -0.053048,0.133246 0.00364,-0.00272 0.00909,-0.00817 0.014715,-0.014988 -0.049414,0.082932 -0.097866,0.1612595 -0.1436557,0.2325287 0.013444,-0.022164 0.02171,-0.03588 0.034789,-0.057499 0.1058319,-0.1745759 0.057408,-0.1370611 -0.069126,0.053593 -0.061495,0.092625 -0.1011723,0.1684082 -0.088201,0.1684082 0.00364,0 0.00726,-0.00181 0.012353,-0.00454 -9.083e-4,9.084e-4 -0.00272,0.00454 -0.00364,0.00454 -0.010449,0.00817 -0.052231,0.063585 -0.092879,0.122482 -0.014534,0.020983 -0.032064,0.044237 -0.050868,0.068398 0.015533,-0.0218 0.031792,-0.044872 0.047325,-0.068398 L 8.3533616,3.135935 8.2715186,3.227806 C 8.2264636,3.27831 8.1552315,3.3609974 8.1132112,3.411529 8.0711552,3.462033 7.9172981,3.6272985 7.7712443,3.7787934 7.5925083,3.9641787 7.5695269,3.9942177 7.7009383,3.8706554 7.8082962,3.7696927 7.9529783,3.626409 8.0224581,3.5521877 c 0.0456,-0.048778 0.072396,-0.07721 0.103761,-0.1106373 -0.1641749,0.1861538 -0.397939,0.4156304 -0.6338739,0.6224528 -7.176e-4,-0.00181 -0.00181,-0.00364 -0.00454,-0.00454 -0.00726,-0.00636 -0.1481519,0.097021 -0.3132083,0.2293495 -0.1650565,0.1323376 -0.2917169,0.240604 -0.2814435,0.240604 0.01026,0 0.1298579,-0.086111 0.2657744,-0.1913805 0.038333,-0.029612 0.058225,-0.045236 0.088473,-0.068671 -0.00726,0.00545 -0.014807,0.012263 -0.021982,0.017985 -0.1921409,0.1512701 -0.2961107,0.2322496 -0.4216903,0.3304877 0.00545,-0.00545 0.010901,-0.011263 0.015169,-0.016623 0.030793,-0.038333 0.014534,-0.033791 -0.056137,0.015714 -0.054683,0.038423 -0.09951,0.07621 -0.09951,0.084114 0,0.01199 0.023345,0.00364 0.052593,-0.014352 -0.1510219,0.1178488 -0.3061955,0.2384959 -0.438733,0.3396952 0.037697,-0.02934 0.071396,-0.055228 0.1162599,-0.090472 0.11259,-0.088564 0.214616,-0.1782548 0.2267243,-0.1994557 0.012081,-0.021165 -0.017985,-0.00363 -0.066945,0.039877 -0.04896,0.043147 -0.1964218,0.1593065 -0.3277965,0.2580624 -0.1313657,0.098756 -0.2474257,0.1934243 -0.2578808,0.2103377 -0.010537,0.017077 0.018803,4.542e-4 0.089382,-0.050686 -0.065765,0.049868 -0.1223276,0.09346 -0.1802532,0.1379059 0.00726,-0.00817 0.015714,-0.017531 0.02498,-0.029339 0.03806,-0.048597 0.03706,-0.049596 -0.011536,-0.011536 -0.029431,0.023162 -0.053593,0.047235 -0.053593,0.053593 0,0.00909 0.00364,0.012081 0.00909,0.011173 C 5.5643829,5.5721144 5.3616844,5.7352996 5.149748,5.9161704 5.066634,5.9871124 4.963418,6.0727247 4.9204531,6.1064062 4.8897511,6.1304772 4.8572321,6.1577282 4.8236321,6.1866142 4.9299544,6.0916456 5.0419812,5.9938617 5.1248137,5.9247816 5.2637551,5.8089032 5.3774352,5.7072315 5.3774352,5.6988293 c 0,-0.017077 0.00454,-0.020801 -0.3980757,0.3226008 -0.1599878,0.1364433 -0.3597886,0.3213563 -0.4439926,0.4109197 -0.098465,0.1047324 -0.065674,0.080753 0.091862,-0.067036 0.00909,-0.00817 0.020801,-0.018985 0.030339,-0.027977 -0.4244178,0.4039345 -0.9607717,1.0376908 -1.1760871,1.408316 -0.053502,0.092035 -0.1101012,0.1880012 -0.1258884,0.2132618 -0.013807,0.022166 -0.028431,0.048052 -0.043237,0.075489 0.00181,-0.00817 0.00272,-0.014264 -2.998e-4,-0.014264 -0.00817,0 -0.036698,0.041334 -0.062767,0.09186 -0.026161,0.050504 -0.040604,0.091859 -0.032156,0.091859 0.00454,0 0.012989,-0.010061 0.02398,-0.025981 -0.033518,0.072482 -0.067853,0.1530842 -0.1020893,0.2392236 9.083e-4,-0.00545 0.00181,-0.010375 0.00181,-0.014264 0,-0.0168 -0.013353,-0.00996 -0.029703,0.015354 -0.01635,0.025247 -0.029703,0.059675 -0.029703,0.076569 0,0.0168 0.013353,0.00996 0.029703,-0.015354 0.00364,-0.00639 0.00817,-0.013079 0.011445,-0.02008 C 3.0193171,8.7247476 2.9202884,9.030607 2.8600921,9.2847724 2.8778961,9.1915614 2.8916111,9.1070542 2.8856171,9.101113 2.8735361,9.089029 2.7742624,9.4982439 2.7742624,9.5600031 c 0,0.017617 0.00636,0.025519 0.014443,0.017533 0.00726,-0.00723 0.022617,-0.067399 0.038786,-0.1378512 -0.1149881,0.6150171 -0.1615684,1.8360671 -0.069307,1.9283201 0.024889,0.02489 0.1661102,0.07412 0.3138625,0.109565 0.011354,0.0027 0.024344,0.0064 0.036153,0.0091 -0.00364,-2.99e-4 -0.00963,-0.0018 -0.012536,-0.0018 -0.0337,6.17e-4 0.014534,0.02598 0.1071673,0.0564 0.092634,0.03034 0.1959766,0.05514 0.2296582,0.05504 0.0337,-8.2e-5 -0.014533,-0.02544 -0.1071763,-0.05632 -4.904e-4,-1.63e-4 -9.083e-4,-3.09e-4 -0.00181,-4.73e-4 0.067945,0.01717 0.1316655,0.03352 0.169907,0.04397 0.1117635,0.03044 0.1591703,0.03243 0.1755933,0.0072 0.012353,-0.0189 0.022981,-0.365029 0.023526,-0.769219 3.179e-4,-0.227414 0.00364,-0.410819 0.010449,-0.572523 9.083e-4,0.08657 0.00545,0.122762 0.011627,0.07557 0.00636,-0.05432 0.00726,-0.150813 2.361e-4,-0.214344 -9.083e-4,-0.01199 -0.00272,-0.01653 -0.00364,-0.02107 0.00454,-0.07085 0.0109,-0.1372707 0.018168,-0.2012462 8.63e-4,0.038693 0.00636,0.056772 0.013717,0.038515 0.00817,-0.020709 0.00909,-0.062043 9.083e-4,-0.091859 -0.00181,-0.00817 -0.00454,-0.012901 -0.00636,-0.014075 0.00636,-0.050054 0.014079,-0.099846 0.022436,-0.1484971 9.083e-4,0.030068 0.00726,0.023161 0.02389,-0.029429 0.013444,-0.042057 0.024526,-0.1041005 0.024526,-0.1377872 0,-0.03425 -0.00272,-0.041146 -0.011173,-0.021977 0.00636,-0.028978 0.012717,-0.058228 0.019984,-0.088108 9.084e-4,0.022166 0.00726,0.033516 0.015714,0.025163 0.010176,-0.010166 0.011263,-0.036513 0.00272,-0.058679 -0.00272,-0.00639 -0.00454,-0.00985 -0.00636,-0.012084 0.00909,-0.03579 0.01744,-0.070574 0.027523,-0.10843 0.00636,-0.024618 0.014079,-0.048964 0.021165,-0.073393 0.00545,0.038421 0.029522,0.00367 0.054683,-0.08357 0.015805,-0.05477 0.037424,-0.1270774 0.04787,-0.16076 0.010537,-0.033694 -0.00817,-0.00639 -0.041784,0.061226 -0.00364,0.00723 -0.00636,0.013803 -0.00972,0.020803 0.07013,-0.2046576 0.159621,-0.4049492 0.2695588,-0.6029592 -0.084204,0.1554632 -0.164566,0.3186484 -0.1815158,0.3831775 -0.011082,0.042152 0.019348,-0.00639 0.067491,-0.1071765 0.048142,-0.1010403 0.1453271,-0.2786997 0.2159605,-0.3947771 0.070578,-0.1160784 0.1230179,-0.2164333 0.1164414,-0.223018 -0.00181,-0.00178 -0.00545,-3.815e-4 -0.00926,0.00272 0.016259,-0.023801 0.033337,-0.047507 0.050141,-0.071308 -0.00817,0.015626 -0.011899,0.026704 -0.00726,0.026431 0.012354,-6.634e-4 0.067763,-0.062672 0.123027,-0.1377969 0.055228,-0.07512 0.089745,-0.1357258 0.076574,-0.1346812 -0.00272,1.909e-4 -0.00636,0.00272 -0.011627,0.00726 0.038696,-0.048233 0.078663,-0.096585 0.120093,-0.1449091 C 4.8129497,7.5611753 4.9420264,7.4379394 5.109726,7.27103 5.3491038,7.0327787 5.7241254,6.6957624 5.9430652,6.5220857 6.1619958,6.3484 6.3893561,6.165549 6.4482989,6.1157623 L 6.5554753,6.0251998 6.4482989,6.0951428 C 6.389347,6.133566 6.2653481,6.2257181 6.1727144,6.2998578 6.0800899,6.3739792 5.9502139,6.4777491 5.884095,6.5304153 5.8179671,6.5830996 5.7077388,6.6718909 5.639131,6.7277726 5.7077116,6.6719091 5.823826,6.5779311 5.8971299,6.5189883 5.9704338,6.4600363 6.0859942,6.3657313 6.1539388,6.3093682 6.2218835,6.2530504 6.3400326,6.1643046 6.4164884,6.1123105 6.4929717,6.0603529 6.5623605,6.0091219 6.570781,5.9985578 6.5753227,5.9921994 6.6768763,5.9142629 6.8122841,5.810829 6.6708722,5.9200036 6.5730064,5.9987849 6.5724614,6.0062697 6.571553,6.0189866 6.6227841,5.9914636 6.6862686,5.9450469 6.9318957,5.7655567 7.5404817,5.2936685 7.6425076,5.2035784 7.7014591,5.1515302 7.4851721,5.3056132 7.1619083,5.5460265 c -0.025616,0.019075 -0.047597,0.035789 -0.072396,0.05441 0.023526,-0.017804 0.038695,-0.029522 0.062949,-0.04778 0.609149,-0.4589987 1.0444852,-0.8187965 1.3876783,-1.1607178 -0.021255,0.0218 -0.049868,0.051867 -0.065037,0.066946 -0.072577,0.072123 -0.1188032,0.1310387 -0.1027433,0.1310387 0.030974,0 0.5404778,-0.5431029 0.6136636,-0.6541034 0.023708,-0.03597 -0.051776,0.037424 -0.1678724,0.1632761 -0.019166,0.020801 -0.04133,0.043873 -0.06204,0.066037 C 8.9951236,3.901285 9.1896741,3.6372819 9.3773121,3.3344287 9.6867053,2.8350629 9.9167086,2.2535005 10.036793,1.6983165 c -0.0055,0.024435 -0.01126,0.056318 -0.01635,0.089836 -0.01299,0.085385 -0.01026,0.1039245 0.0091,0.061223 0.02661,-0.05877 0.04406,-0.2228275 0.0208,-0.1965216 -0.0027,0.00364 -0.0082,0.020165 -0.01317,0.043964 0.01099,-0.050686 0.02071,-0.1011535 0.02988,-0.1513676 -2e-4,0.00454 -5.99e-4,0.00817 -5.99e-4,0.01308 0,0.042148 0.0073,0.059315 0.01544,0.038242 0.0082,-0.021074 0.0082,-0.0555 0,-0.076574 -0.0027,-0.00726 -0.0064,-0.010176 -0.0082,-0.00817 0.04805,-0.2775375 0.06695,-0.54513775 0.05259,-0.78865751 -0.0018,-0.0375152 -0.02425,-0.0489596 -0.2161334,-0.049142 z m -3.4984124,0.071487 c -0.1682629,-7.5395e-4 -0.2828058,1.813e-5 -0.3611692,0.002725 0.07839,-0.002725 0.1929063,-0.003637 0.3611692,-0.002725 z m 3.4797554,0.0203474 c 0.02444,0.002725 0.04406,0.006362 0.05977,0.0124443 0.01571,0.006362 0.02752,0.0147154 0.03624,0.0260697 -0.0091,-0.0113542 -0.02053,-0.0198925 -0.03624,-0.0260696 -0.01571,-0.006362 -0.03533,-0.010082 -0.05977,-0.0124444 z m -4.2995237,0.006362 c -1.09e-4,9.0832e-4 -7.721e-4,0.002725 -7.721e-4,0.003637 0,0.0124443 -0.014624,0.0260697 -0.036153,0.0376965 0.012627,-0.009086 0.025525,-0.0236173 0.03697,-0.0416937 z m 2.7307475,0.0202563 c 0.00454,9.0833e-4 0.00726,0.002725 0.00909,0.003637 9.1e-6,9.01e-6 -9.2e-6,4.537e-5 0,6.351e-5 -9.084e-4,-9.0833e-4 -0.00454,-0.002725 -0.00909,-0.003637 z m -4.2948553,0.0352436 c -0.2108917,0 -0.4230825,9.0833e-4 -0.5857409,0.003637 -0.3252985,0.004538 -0.067854,0.009086 0.5721066,0.009086 0.6399784,9.12e-6 0.9061524,-0.003637 0.5914816,-0.009086 -0.1573354,-0.002725 -0.3669464,-0.003637 -0.5778473,-0.003637 z m 6.1116469,0.0643111 c -0.0045,-0.003637 -0.0082,0.0279771 -0.0082,0.0848399 0,0.0757567 0.0064,0.10679489 0.01326,0.0689434 0.0073,-0.037878 0.0073,-0.0999 0,-0.13779674 -0.0018,-0.009443 -0.0036,-0.0147154 -0.0054,-0.0158965 z m -4.4663149,0.002725 -0.097311,0.0705783 -1.31095,-0.003637 C 4.0855876,0.96261519 3.9130646,0.96286043 3.7555839,0.96373249 3.9130646,0.96286043 4.0855876,0.96282416 4.2658407,0.96301491 l 1.31095,0.003637 z m 2.8120177,0.0164415 c -0.00545,-0.002725 -0.00817,0.0217099 -0.00817,0.065946 0,0.0589515 0.00636,0.0830237 0.013989,0.053593 0.00726,-0.029431 0.00726,-0.0776641 0,-0.10716727 -0.00181,-0.007263 -0.00364,-0.0114455 -0.00545,-0.0123531 z m -5.5998187,0.082751 c -0.00272,9.0833e-4 -0.00454,0.002725 -0.00726,0.00545 0.00272,-0.001813 0.00545,-0.003637 0.00726,-0.00545 z m 4.029911,0.10956539 c 0.00272,4.268e-4 0.00545,0.00272 0.00926,0.00726 -0.00545,-0.00636 -0.00972,-0.00909 -0.012354,-0.00636 8.629e-4,-7.812e-4 0.00181,-9.084e-4 0.00272,-8.902e-4 z m 1.5536436,0.072755 -0.044328,0.1684081 c -0.024344,0.092634 -0.044055,0.1890824 -0.043691,0.2143436 9.084e-4,0.087747 0.053048,-0.083477 0.070578,-0.2333008 z m -5.7379153,0.00636 c -0.00272,0.00636 -0.00545,0.1485244 -0.00545,0.3916717 -2.72e-5,0.3536663 0.00454,0.5025542 0.0099,0.3308486 0.00545,-0.1717146 0.00545,-0.4610789 0,-0.6430396 -0.00181,-0.056863 -0.00364,-0.082296 -0.00454,-0.07948 z m 4.2687216,0.068762 v 5.45e-5 l -0.6047618,0.00817 -0.6047618,0.00817 v -6.36e-5 l 0.6047618,-0.00817 z m -0.4042343,0.037697 c 0.2045423,9.083e-4 0.3396233,0.00936 0.3529215,0.022617 0.019258,0.019257 0.010355,0.060042 -0.025434,0.1156059 l -0.055228,0.085749 0.051958,-0.045962 c -0.021437,0.027523 -0.045417,0.056227 -0.072849,0.086566 0.011446,-0.015351 0.016078,-0.025343 0.00917,-0.025343 -0.014988,0 -0.088746,0.064766 -0.163812,0.143901 -0.07512,0.079118 -0.1089748,0.1239445 -0.075302,0.099573 0.00726,-0.00545 0.014897,-0.011536 0.022436,-0.01744 -0.044146,0.037515 -0.088201,0.072668 -0.1296035,0.1005362 -0.00364,0.00272 -0.010176,0.00545 -0.014352,0.00817 0.014443,-0.011718 0.026161,-0.023345 0.031611,-0.032156 0.014806,-0.02398 0.00272,-0.02398 -0.042511,2.997e-4 -0.03479,0.018621 -0.072487,0.048961 -0.083931,0.0674 -0.00817,0.013353 -0.00726,0.01844 0.00181,0.016895 -0.037697,0.019711 -0.078573,0.039695 -0.1221823,0.059769 0.011263,-0.010355 0.011899,-0.017713 -5.358e-4,-0.017713 -0.016804,0 -0.051322,0.013353 -0.076574,0.029703 -0.024162,0.015624 -0.030793,0.028068 -0.016804,0.029249 -0.022436,0.00936 -0.045327,0.019256 -0.066491,0.027432 v -6.35e-5 c -0.00181,6.54e-4 -0.00272,9.083e-4 -0.00454,0.00181 0.021346,-0.014897 0.027068,-0.026706 0.011354,-0.026706 -0.016804,0 -0.051322,0.013444 -0.076574,0.029703 -0.021255,0.013717 -0.028522,0.024889 -0.020529,0.02825 -0.03488,0.012717 -0.072941,0.027068 -0.1006546,0.036425 0.00454,-0.00181 0.00909,-0.00364 0.013989,-0.00636 C 5.994726,2.084312 5.990912,2.082223 5.921422,2.095666 5.8121627,2.1168391 5.8008902,2.0692415 5.8123354,1.6364215 l 0.00909,-0.3368255 0.5489072,-0.00817 c 0.081661,-9.085e-4 0.1575807,-0.00181 0.2257615,-9.085e-4 z m 0.4042343,0.03488 v 5.996e-4 c 0,1.725e-4 -1.182e-4,4.268e-4 -1.182e-4,5.994e-4 0,-3.814e-4 1.182e-4,-8.175e-4 1.182e-4,-9.083e-4 z m 3.103816,0.031247 c -0.0045,-7.084e-4 -0.0082,0.010449 -0.0091,0.032792 -9.08e-4,0.032247 0.0064,0.050322 0.01608,0.040149 0.01018,-0.010176 0.01126,-0.036606 0.0027,-0.058679 -0.0036,-0.00917 -0.0073,-0.013898 -0.0098,-0.014262 z M 7.0423967,1.4878698 c -0.00909,0.014624 -0.019439,0.029158 -0.031519,0.043782 0.01199,-0.014624 0.022617,-0.029158 0.031519,-0.043782 z m 1.3077797,0.2408946 -0.043237,0.076574 c -0.023799,0.042057 -0.052321,0.1110004 -0.063494,0.1531025 l -0.020165,0.076574 0.043146,-0.076574 c 0.023799,-0.042056 0.052412,-0.1110005 0.063494,-0.1531025 z M 5.780434,1.8359408 c -2.543e-4,0.074303 7.086e-4,0.1353442 0.00272,0.182642 -0.00272,-0.042239 -0.00272,-0.1082209 -0.00272,-0.182642 z m 4.2157286,0.1123084 c -0.01317,0.00817 -0.06268,0.1558911 -0.09862,0.2990382 -0.01081,0.043237 -0.01353,0.078573 -0.0064,0.078573 0.01808,0 0.1105374,-0.319031 0.107894,-0.3721694 -2.46e-4,-0.00454 -0.0018,-0.00636 -0.0036,-0.00545 z m -8.3694347,0.1479612 -0.068853,0.058316 c -0.037878,0.032064 -0.068943,0.072214 -0.068943,0.089291 0,0.017076 0.00364,0.025252 0.00817,0.018258 0.00181,-0.00272 0.01962,-0.025343 0.029249,-0.037878 -0.025616,0.057862 -0.027341,0.1400041 -0.00726,0.2524397 0.01953,0.1077395 0.051686,0.20873 0.094795,0.3022537 -0.029976,-0.051686 -0.063766,-0.09643 -0.063766,-0.075574 0,0.012989 0.020983,0.064311 0.04669,0.1139889 0.051141,0.098901 0.085385,0.1220187 0.05441,0.036788 -6.722e-4,-0.00181 -0.00181,-0.00364 -0.00272,-0.00636 C 1.7481269,3.030621 1.8936819,3.180399 2.077841,3.2865943 1.9931747,3.2383615 1.9123679,3.177493 1.8381375,3.1050247 1.7477566,3.0167331 1.686452,2.9683543 1.702012,2.9974306 c 0.051686,0.096612 0.2810801,0.2821701 0.4405955,0.3564459 0.086566,0.040331 0.1780821,0.072849 0.2033434,0.072123 0.016623,-4.36e-4 -0.00936,-0.017168 -0.058044,-0.040604 l 0.1346176,0.056681 h 0.00181 c -0.00726,0.00636 0.00909,0.011536 0.044055,0.011536 0.032792,0 0.049777,-0.00454 0.046053,-0.010176 l 0.9542679,0.014443 c 0.1174134,0.00181 0.2263611,0.00364 0.3324019,0.00636 -0.084567,4.087e-4 -0.1698707,8.448e-4 -0.2609964,0.00181 l -0.8726889,0.00909 0.9102492,0.00726 0.9102492,0.00726 0.04669,0.076574 c 0.025616,0.042056 0.067672,0.1110005 0.093296,0.1531025 0.025616,0.042056 0.070397,0.074939 0.09951,0.072941 0.046598,-0.00272 0.046871,-0.00545 0.00272,-0.016895 -0.017531,-0.00454 -0.046235,-0.035063 -0.07503,-0.075029 0.029248,0.039967 0.05877,0.070578 0.076483,0.075302 0.026796,0.00726 0.057135,0.014715 0.067491,0.016623 0.010355,0.00181 0.055137,-0.02498 0.099519,-0.059951 0.089927,-0.070761 0.1033155,-0.2014904 0.050686,-0.3279238 0.00817,0.011718 0.016169,0.01744 0.021255,0.012263 0.00817,-0.00817 -3.088e-4,-0.039513 -0.018168,-0.070216 -0.034244,-0.058861 -0.042692,-0.042239 -0.018349,0.025161 -0.026615,-0.051958 -0.064039,-0.102235 -0.1125538,-0.1461718 -0.020256,-0.018349 -0.03815,-0.034427 -0.056045,-0.048597 0.053502,0.031157 0.09138,0.059406 0.09138,0.070488 0,0.015351 0.013807,0.027977 0.030612,0.027977 0.016804,0 0.030612,-0.00726 0.030612,-0.016078 0,-0.02825 -0.2859761,-0.1983202 -0.3335373,-0.1983202 -0.020983,0 0.012172,0.02498 0.073394,0.058225 -0.1323407,-0.04341 -0.378976,-0.048133 -1.0871535,-0.059669 L 2.5449524,3.0427574 2.3940662,2.9675459 c 0.024162,-0.00545 0.010718,-0.023526 -0.034427,-0.040876 -0.024254,-0.00926 -0.035517,-0.00545 -0.030521,0.00726 -0.016078,-0.00909 -0.031883,-0.01853 -0.047235,-0.028431 0.013715,-0.00817 -0.018894,-0.038605 -0.096704,-0.09029 l -0.060496,-0.040149 c -0.01853,-0.01962 -0.03597,-0.04024 -0.052503,-0.061495 0.027341,0.02716 0.021891,-0.00181 -0.019984,-0.065946 -0.027613,-0.042148 -0.056318,-0.076574 -0.063766,-0.076574 -0.00181,0 -0.00272,8.902e-4 -0.00364,0.00272 -0.020075,-0.040785 -0.03706,-0.083296 -0.050141,-0.1273871 -4.632e-4,-0.00181 -9.083e-4,-0.00272 -0.00181,-0.00454 8.084e-4,-4.632e-4 0.00181,-8.176e-4 0.00272,-0.00181 0.010176,-0.010176 0.011263,-0.036606 0.00272,-0.058679 -0.00981,-0.024435 -0.017077,-0.017168 -0.01853,0.01844 -9.1e-6,1.18e-4 0,1.908e-4 0,2.998e-4 C 1.8451862,2.1733112 1.7595832,2.0893614 1.6398081,2.127376 c -0.025071,0.00817 -0.046326,0.018894 -0.06422,0.0327 z m 0.1648203,0.015351 c -0.016804,0 -0.022164,0.013807 -0.011718,0.030612 0.010449,0.016804 0.032701,0.030612 0.049505,0.030612 0.016895,0 0.022164,-0.013807 0.011718,-0.030612 -0.010449,-0.016804 -0.032701,-0.030612 -0.049505,-0.030612 z m 6.1551206,0.00364 c 9.084e-4,0.00545 0.00364,0.011808 0.00364,0.013898 0,0.00272 -0.00272,0.00454 -0.00636,0.00636 0.00454,-0.00364 0.00545,-0.010355 0.00364,-0.020165 z m -2.1443435,0.00726 c 0.012444,0.012717 0.030612,0.017894 0.055409,0.014988 -0.00817,0.00181 -0.017804,0.00454 -0.02062,0.00454 -0.014806,0 -0.026161,-0.00545 -0.034789,-0.019802 z m 2.1205357,0.018621 c -0.00545,7.358e-4 -0.012081,9.085e-4 -0.018894,9.085e-4 0.00817,0 0.01308,-6.814e-4 0.018894,-9.085e-4 z m -2.1536723,0.038787 c 0.00364,0.00454 0.00726,0.00909 0.011354,0.013353 0.042784,0.045508 0.086838,0.065765 0.1162599,0.05332 -0.042329,0.017894 -0.090472,-0.012354 -0.1276233,-0.066673 z M 1.862236,2.2075744 c -0.00909,-0.00272 -0.00545,0.023254 0.013262,0.071396 0.010537,0.027341 0.025525,0.043329 0.033427,0.035425 0.00817,-0.00817 -3.089e-4,-0.039513 -0.018168,-0.070216 C 1.877223,2.2209254 1.867595,2.2092074 1.862326,2.2076644 Z m 6.181799,0.1385143 c -2.453e-4,5.994e-4 -2.272e-4,9.083e-4 -4.179e-4,0.00181 1.817e-4,-6.176e-4 1.999e-4,-9.083e-4 4.179e-4,-0.00181 z m -6.5419419,0.065583 c -0.00364,0.00181 -0.00726,0.02062 -0.00726,0.05223 h -5.45e-5 c -6.267e-4,0.050504 0.00545,0.074848 0.014079,0.054138 0.00817,-0.02071 0.00909,-0.06204 9.084e-4,-0.091862 -0.00272,-0.011173 -0.00545,-0.015714 -0.00817,-0.014443 z m 1.3909029,0.047416 c 0.00999,0.00917 0.020529,0.018349 0.031883,0.027977 0.059679,0.050141 0.1168229,0.083296 0.2034069,0.1051962 -0.1142976,-0.023436 -0.171678,-0.063585 -0.2352808,-0.133128 z m 6.9120856,0.081297 c -0.011173,0 -0.2322835,0.4548566 -0.2322835,0.4777925 0,0.072668 0.11497,-0.1440735 0.2169141,-0.4088941 0.014624,-0.037878 0.021528,-0.068943 0.015351,-0.068943 z m -6.0824525,0.09168 c 0.026615,1.454e-4 0.049414,4.996e-4 0.078209,5.45e-4 0.2074492,2.907e-4 0.4287688,0.00726 0.5880754,0.016804 L 3.7855324,2.6338814 c -0.023526,-6.086e-4 -0.040694,-9.084e-4 -0.062858,-0.00182 z m 4.1401354,0.014534 c -0.00454,0.00636 -0.00726,0.00999 -0.011627,0.016259 C 7.6897146,2.8924071 7.3804757,3.2304408 7.1325686,3.4521782 7.3825104,3.2133093 7.6779878,2.8843591 7.8627463,2.6465892 Z m 2.7060945,0.031519 -0.0082,0.9775943 -0.0082,0.9145548 1.72e-4,-0.8587003 c 1.17e-4,-0.5972136 -0.01072,-0.9262728 -0.03043,-0.9262728 -0.0168,0 -0.03061,0.014443 -0.03061,0.032064 0,0.027432 -0.05259,0.1440554 -0.124871,0.288683 0.0064,-0.014443 0.01145,-0.029612 0.01553,-0.045145 l 0.02008,-0.076574 -0.04614,0.076574 c -0.02534,0.042148 -0.0466,0.089654 -0.04714,0.1056231 -9.09e-4,0.029067 0.01517,0.01744 0.03334,-0.011627 -0.04278,0.084114 -0.09065,0.1743216 -0.139113,0.2632673 0.0036,-0.012353 0.0045,-0.020347 -3e-4,-0.020347 -0.0082,0 -0.03007,0.027523 -0.04805,0.061223 -0.01798,0.0337 -0.02589,0.061223 -0.01744,0.061223 0.0036,0 0.01045,-0.00636 0.01817,-0.015442 -0.01535,0.027523 -0.03034,0.053774 -0.04524,0.079844 0.0045,-0.011718 0.0064,-0.02071 0.0036,-0.023526 -0.0091,-0.00909 -0.03788,0.026342 -0.06467,0.078118 -0.0268,0.051776 -0.1380334,0.2126086 -0.2472353,0.3573997 C 9.6929007,4.141452 9.6035554,4.2684666 9.6035554,4.27894 c 0,0.025433 0.026523,-0.00636 0.1886281,-0.2228366 0.099174,-0.1327374 0.1746031,-0.2392687 0.2295955,-0.3219377 -0.0317,0.051413 -0.0604,0.096204 -0.08103,0.1228998 -0.04551,0.058952 -0.09514,0.1296581 -0.110401,0.157172 -0.039876,0.071851 -0.1705705,0.2251892 -0.3399325,0.4066868 0.013534,-0.015624 0.028613,-0.032701 0.036698,-0.043329 0.032337,-0.042147 -0.052866,0.041057 -0.1892819,0.1847403 -0.1364524,0.1437012 -0.3064957,0.3125 -0.3779193,0.3751035 -0.071397,0.062585 -0.1174679,0.1138073 -0.1023262,0.1138073 8.447e-4,0 0.00364,-0.00181 0.00545,-0.00272 -0.014443,0.013534 -0.028158,0.025797 -0.04242,0.039059 0.00181,-0.00364 0.00181,-0.00545 -2.452e-4,-0.00545 -0.010991,0 -0.067036,0.04133 -0.1245712,0.091862 -0.057499,0.050504 -0.095622,0.091862 -0.084659,0.091862 0.00454,0 0.018985,-0.00909 0.03706,-0.02171 -0.039876,0.03488 -0.078481,0.068217 -0.113998,0.09743 -0.00272,0.00272 -0.00972,0.00726 -0.01308,0.010449 0.00454,-0.00545 0.00926,-0.010355 0.014807,-0.017259 0.03806,-0.048597 0.03706,-0.049596 -0.011536,-0.011536 -0.029431,0.023162 -0.053593,0.047235 -0.053593,0.053593 0,0.00636 0.00181,0.01026 0.00545,0.011263 -0.031611,0.025434 -0.060224,0.048597 -0.1023346,0.081751 0.00726,-0.00726 0.013353,-0.012353 0.020438,-0.020165 0.030521,-0.0337 0.048597,-0.061223 0.040149,-0.061223 -0.00817,0 -0.04024,0.027523 -0.070761,0.061223 -0.028068,0.031066 -0.045327,0.05659 -0.04133,0.060496 -0.05332,0.041784 -0.1095926,0.085657 -0.1724231,0.1342633 0.014715,-0.012626 0.029249,-0.025071 0.041239,-0.03597 0.061132,-0.055864 -0.00272,-0.015714 -0.1413848,0.0892 -0.1389414,0.1049054 -0.2526214,0.19624 -0.2526214,0.2029891 0,0.00636 0.033699,-0.014806 0.076937,-0.04451 C 7.7723926,5.9337107 7.6691859,6.0119469 7.5698123,6.0865134 6.640297,6.7839724 6.3111289,7.0569136 5.8828052,7.4853099 5.3825946,7.9856109 5.0270208,8.4749221 4.795355,8.986441 4.793545,8.976481 4.785545,8.974273 4.769467,8.984661 4.75466,8.993881 4.734677,9.032535 4.725048,9.070683 4.708153,9.137631 4.709151,9.137987 4.751935,9.080533 4.753745,9.077813 4.755575,9.076023 4.757385,9.073303 4.715056,9.173232 4.67736,9.2741029 4.6442317,9.376101 c 0.00454,-0.013803 0.00817,-0.026431 0.010628,-0.036974 0.015079,-0.061498 0.010537,-0.058501 -0.022981,0.015354 -0.022981,0.050504 -0.050232,0.1263062 -0.060587,0.1684086 -0.015079,0.061498 -0.010537,0.058501 0.023072,-0.015354 0.014897,-0.032793 0.031247,-0.075762 0.044055,-0.1137529 -0.03706,0.1161235 -0.067672,0.233928 -0.093242,0.3534576 9.083e-4,-0.00912 0.00181,-0.01789 0.00181,-0.025341 -7.176e-4,-0.049236 -0.00545,-0.046239 -0.025434,0.015259 -0.013444,0.042152 -0.024889,0.097215 -0.025434,0.1224902 -5.542e-4,0.02816 0.00926,0.022166 0.025434,-0.015354 0.00364,-0.00817 0.00636,-0.016894 0.00936,-0.026347 -0.00272,0.013897 -0.00636,0.02771 -0.00817,0.041691 -0.013443,0.073488 -0.028522,0.1537115 -0.043328,0.2322205 0.00272,-0.02825 0.00454,-0.05613 0.00454,-0.07912 l 5.45e-5,-0.1071764 -0.025343,0.1224814 c -0.013898,0.0674 -0.024526,0.156936 -0.023526,0.199039 0.00181,0.06123 0.00454,0.06386 0.018984,0.0082 -0.013717,0.120094 -0.024435,0.481299 -0.024435,0.851707 v 0.73411 l 0.071306,0.02716 c 0.039241,0.0149 0.1667096,0.04986 0.2832419,0.07775 0.00817,0.0018 0.015896,0.0045 0.024435,0.0064 -0.062676,-0.01308 -0.1146066,-0.01999 -0.1220641,-0.01253 -0.00817,0.0082 0.064947,0.03589 0.1626129,0.0615 0.2164418,0.05677 0.2448732,0.06049 0.206568,0.02752 -0.00726,-0.0064 -0.026706,-0.01444 -0.050232,-0.02289 0.0228,0.0072 0.041875,0.01362 0.051776,0.01808 0.029793,0.01335 0.081116,0.02843 0.121828,0.03651 -0.00726,0.0037 0.00364,0.01208 0.031247,0.02398 0.0337,0.01444 0.081934,0.02635 0.1071763,0.02635 0.028976,0 0.023254,-0.0097 -0.015352,-0.02635 -0.00545,-0.0018 -0.011082,-0.0045 -0.016804,-0.0064 0.094877,0.0037 0.087656,-0.10431 0.1022707,-0.889375 0.00817,-0.432031 0.015714,-0.673488 0.030612,-0.84632 -2.271e-4,0.0091 -5.995e-4,0.01653 -5.995e-4,0.02725 0,0.07575 0.00636,0.106785 0.013262,0.06894 0.00726,-0.03788 0.00726,-0.0999 0,-0.137797 -0.00272,-0.01553 -0.00545,-0.01889 -0.00817,-0.01308 0.010718,-0.103493 0.02498,-0.182315 0.044963,-0.2681088 0.00364,-0.014086 0.00636,-0.026525 0.00999,-0.040244 -9.084e-4,0.00912 -0.00181,0.0168 -0.00181,0.022889 -5.541e-4,0.028161 0.00926,0.02225 0.025434,-0.015354 0.014443,-0.033705 0.025888,-0.088841 0.025434,-0.1224826 -6.45e-4,-0.043692 -0.00545,-0.043598 -0.019893,-6.54e-4 0.00909,-0.033149 0.018349,-0.064307 0.027614,-0.095811 -2.73e-5,9.086e-4 -5.542e-4,0.00367 -4.814e-4,0.00451 9.083e-4,0.0168 0.031247,-0.045149 0.066946,-0.1377967 0.035698,-0.092625 0.1166867,-0.2686627 0.1800079,-0.3911907 0.063312,-0.1225186 0.1018169,-0.2144798 0.085566,-0.2044145 -0.00272,0.00178 -0.00636,0.00639 -0.010449,0.010166 0.024253,-0.039427 0.049506,-0.079304 0.076755,-0.1206289 0.00181,-0.00272 0.00364,-0.00545 0.00636,-0.00912 -0.060238,0.1078669 -0.022178,0.085347 0.05694,-0.043089 C 6.279055,8.3969122 7.0050907,7.7326992 8.1811414,6.8575942 8.8413126,6.3663581 9.2668022,6.0313765 9.3294148,5.9535672 9.354667,5.9221383 9.2168883,6.0231469 9.0232098,6.1779025 8.8295313,6.3326764 8.436824,6.6335495 8.1505209,6.846476 8.0621384,6.9122405 7.9790788,6.974508 7.8988532,7.0350404 7.9796965,6.9739085 8.0630013,6.9113049 8.1505209,6.8461762 8.9481165,6.2525418 9.5151815,5.7798542 9.9379456,5.3522209 c -0.06649,0.075212 -0.107884,0.1283953 -0.09677,0.1283953 0.03434,0 0.3600984,-0.3547291 0.5902284,-0.6426127 l 0.15346,-0.1919163 -0.0073,-0.9836258 z m -5.5438911,0.018985 c 0.00272,0.00272 0.00545,0.00545 0.00726,0.00817 0.00181,0.00364 0.00817,0.00999 0.012626,0.01526 -0.00454,-0.00545 -0.010809,-0.011991 -0.012626,-0.01526 -0.00181,-0.00272 -0.00364,-0.00545 -0.00636,-0.00817 z m -0.53778,0.337007 c -0.010628,-4.36e-4 -0.022709,0.00181 -0.03379,0.00636 -0.024435,0.00981 -0.017168,0.016986 0.018439,0.01844 0.032247,9.084e-4 0.050413,-0.00636 0.04024,-0.016078 -0.00545,-0.00545 -0.014261,-0.00817 -0.024889,-0.00817 z m 5.0724482,0.026887 c -0.00817,0 -0.069126,0.093125 -0.1356438,0.2069314 C 9.3575013,3.3817354 9.2392429,3.564314 9.1610884,3.6736521 9.0826064,3.7834354 9.0614604,3.8244565 9.1138544,3.7652771 9.270881,3.5878671 9.6043817,3.0609965 9.5596456,3.0609965 Z m -0.1967576,0.073758 c -0.00364,0.00272 -0.00817,0.00726 -0.01199,0.013807 0.00454,-0.00636 0.00817,-0.011536 0.01199,-0.013807 z M 2.5486948,3.2869583 c 0.013262,7.63e-4 0.02398,0.00272 0.031247,0.00454 -0.00726,-0.00272 -0.017985,-0.00364 -0.031247,-0.00454 z m -0.4621235,0.00545 c 0.011627,0.00636 0.023617,0.012626 0.035517,0.018894 -0.011899,-0.00636 -0.023799,-0.012354 -0.035517,-0.018894 z m 2.3109079,0.090017 c 0.040966,0.00454 0.074939,0.00944 0.1036426,0.016078 -0.028703,-0.00636 -0.062676,-0.011899 -0.1036426,-0.016078 z m 0.5920176,0.061768 -0.00454,0.1126173 c -0.00364,0.08157 -0.02716,0.1300849 -0.085567,0.1760656 -0.044418,0.03488 -0.0674,0.063494 -0.051231,0.063494 0.016169,0 0.060315,-0.032973 0.098138,-0.073213 0.050958,-0.054228 0.065582,-0.0999 0.056227,-0.1760656 z m 1.9680963,0.01526 c -0.00545,0 -0.012081,0.00181 -0.019439,0.00454 0.00726,-0.00272 0.014079,-0.00454 0.019439,-0.00454 z m -2.4581424,0.026887 c 0.017168,9.084e-4 0.027977,0.00272 0.028976,0.00364 0.00636,0.00726 0.035698,0.058044 0.068036,0.1159691 -0.029976,-0.051598 -0.067127,-0.097551 -0.097003,-0.1196785 z m 0.8979228,0.1549022 c -0.00181,0.015714 -0.00364,0.031429 -0.00636,0.047235 0.00272,-0.015714 0.00454,-0.031519 0.00636,-0.047235 z m -0.7615067,0.031157 c 0.00181,0.00272 0.00364,0.00636 0.00545,0.00909 -0.00181,-0.00272 -0.00364,-0.00545 -0.00545,-0.00909 z m 0.7548667,0.017531 c -0.00364,0.020892 -0.00726,0.041784 -0.012444,0.062767 -0.00454,0.020256 -0.00999,0.040603 -0.016259,0.06095 -0.023526,0.076574 -0.047597,0.1325828 -0.080661,0.1815701 0.032519,-0.049414 0.057772,-0.1072671 0.080661,-0.1815701 0.00636,-0.019711 0.011445,-0.040149 0.016259,-0.06095 0.00454,-0.02062 0.00909,-0.041694 0.012444,-0.062767 z m 1.4732086,0.02071 c -0.011899,-0.011899 -0.6900469,0.5120557 -0.6900469,0.5332293 0,0.00726 0.079208,-0.0446 0.1760748,-0.1157784 C 6.6238014,3.9268096 6.8756053,3.7223126 6.8639421,3.7106405 Z M 3.724246,3.8609361 c -0.052684,0 -0.1054505,0.00181 -0.1454542,0.00454 -0.080025,0.00636 -0.014534,0.011446 0.1454542,0.011446 0.1599878,0 0.2254436,-0.00545 0.145445,-0.011446 -0.039967,-0.00272 -0.092724,-0.00454 -0.145445,-0.00454 z m -0.616425,2.361e-4 c -0.022164,-1.09e-4 -0.045509,0.00181 -0.064494,0.00545 v -6.37e-5 c -0.03806,0.00726 -0.01417,0.013625 0.053229,0.013989 0.0674,3.361e-4 0.098529,-0.00545 0.069216,-0.013353 -0.014624,-0.00364 -0.035789,-0.00545 -0.057953,-0.00545 z m 2.1692869,0.1406673 c -0.00454,0.00636 -0.00972,0.013353 -0.014807,0.019893 0.00454,-0.00636 0.010082,-0.012989 0.014807,-0.019893 z m -1.0637695,0.013989 0.029158,0.033064 c 0.00364,0.00454 0.00636,0.00636 0.0099,0.010628 -0.013444,-0.013717 -0.026433,-0.028341 -0.039059,-0.043691 z m -1.3087972,9.083e-4 c 0.00636,7.45e-4 0.012444,0.00272 0.018621,0.00636 -0.00636,-0.00364 -0.012444,-0.00545 -0.018621,-0.00636 z M 2.731464,4.16517 c -0.00364,0.00636 -0.00545,0.1059045 -0.00545,0.273795 0,0.244201 0.00454,0.3441014 0.010628,0.222001 0.00545,-0.1221005 0.00545,-0.3219013 0,-0.4440019 -0.00181,-0.03815 -0.00364,-0.054592 -0.00545,-0.051776 z m 7.0806756,0.070851 c 0.0018,-3.63e-5 0.0036,5.268e-4 0.0045,0.00181 -0.0018,-0.00272 -0.0054,-0.00181 -0.010809,1.18e-4 0.00272,-9.084e-4 0.00454,-0.00181 0.00636,-0.00181 z M 4.9085809,4.3656157 c 0.00272,0.00726 0.00181,0.013989 -0.00272,0.01953 0.00454,-0.00545 0.00545,-0.012081 0.00272,-0.01953 z m 4.5904683,0.227987 c -0.00181,9.083e-4 -0.00454,0.00272 -0.00636,0.00454 0.00181,-0.00181 0.00454,-0.00364 0.00636,-0.00454 z m -1.171954,0.029158 c -0.00999,0 -0.074848,0.051776 -0.144137,0.1150698 -0.069216,0.063312 -0.1637848,0.1445277 -0.2100925,0.1804893 -0.046326,0.03597 -0.084204,0.076119 -0.084204,0.089291 0,0.025071 0.037697,-0.00545 0.2972396,-0.2404767 0.087656,-0.07939 0.1512313,-0.1443732 0.1412031,-0.1443732 z m 2.0271838,0.019893 c -0.0064,0.00272 -0.0129,0.00726 -0.01844,0.013262 0.0054,-0.00545 0.01181,-0.010082 0.01844,-0.013262 z m -0.9366179,0.072487 c -0.00545,0.00545 -0.010809,0.010355 -0.016895,0.015352 -0.012081,0.0099 -0.025616,0.019258 -0.04024,0.027523 0.014624,-0.00817 0.028159,-0.017621 0.04024,-0.027523 0.00636,-0.00454 0.011627,-0.010082 0.016895,-0.015352 z m 1.0302149,0.054683 -0.0258,0.033882 c -0.02008,0.026251 -0.04869,0.061223 -0.08093,0.09951 0.01372,-0.016895 0.02798,-0.033882 0.04133,-0.050777 z m -1.1340394,0.00972 c -0.030067,0.0109 -0.056227,0.024253 -0.074212,0.03706 0.017985,-0.012808 0.044146,-0.026161 0.074212,-0.03706 z m -3.9414609,0.063585 c -5.723e-4,-0.00272 -0.033428,0.021346 -0.1017896,0.073394 -0.084204,0.06422 -0.2082213,0.160996 -0.2755846,0.2150066 -0.0674,0.054047 -0.1638209,0.1042148 -0.2143435,0.1116 l -0.091862,0.013443 0.086566,0.00454 c 0.085839,0.00454 0.2825334,-0.127596 0.5411864,-0.3636128 0.037243,-0.033972 0.056318,-0.052321 0.055864,-0.05441 z m 4.7863363,0.073394 c 0.0027,-2.635e-4 0.0045,2.725e-4 0.0055,0.00181 -0.0027,-0.00272 -0.0073,-0.00181 -0.01363,0.00181 0.0027,-0.00181 0.0054,-0.00272 0.0082,-0.00272 z m -2.30068,0.1042411 c -0.00181,-0.00181 -0.013989,0.00726 -0.038241,0.026706 -0.029431,0.023163 -0.053593,0.047235 -0.053593,0.053593 0,0.025161 0.025161,0.00909 0.065129,-0.042056 0.019075,-0.024252 0.028341,-0.036698 0.026706,-0.038242 z m -4.1950271,0.06522 c -0.013898,0 -0.027705,0.00181 -0.038241,0.00636 -0.021074,0.00817 -0.00364,0.015442 0.038241,0.015442 0.042148,0 0.059315,-0.00726 0.038241,-0.015442 -0.010537,-0.00454 -0.024435,-0.00636 -0.038241,-0.00636 z m 5.3058673,0.043874 c -0.00909,0.011082 -0.018076,0.021165 -0.027523,0.030067 0.00944,-0.00909 0.018803,-0.018985 0.027523,-0.030067 z m -0.068853,0.058498 c -0.00454,0.00181 -0.00817,0.00272 -0.012081,0.00364 -0.00636,9.083e-4 -0.013081,0.00272 -0.019439,0.00454 0.00636,-0.00181 0.012808,-0.00364 0.019439,-0.00454 0.00364,-5.541e-4 0.00817,-0.00181 0.012081,-0.00364 z m -0.090108,0.046507 c -0.014261,0.013989 -0.030067,0.032156 -0.048506,0.055773 0.018439,-0.023617 0.034244,-0.041784 0.048506,-0.055773 z m -3.0682909,0.185339 c -0.00636,3.906e-4 -0.045417,0.027523 -0.1112367,0.0773 -0.1052596,0.079663 -0.1913804,0.1505683 -0.1913804,0.1576443 0,0.018985 0.1525484,-0.094977 0.2755846,-0.2058505 0.022073,-0.019893 0.030612,-0.02934 0.027068,-0.029067 z m 2.8882101,0.023345 c -0.02934,0.022981 -0.063221,0.045508 -0.094732,0.061859 -0.015714,0.00817 -0.0337,0.018713 -0.052775,0.030702 -0.056954,0.03597 -0.1232087,0.085112 -0.1663191,0.1244622 0.043146,-0.039423 0.10932,-0.088473 0.1663191,-0.1244622 0.018985,-0.01199 0.03697,-0.022527 0.052775,-0.030702 0.031519,-0.016441 0.065401,-0.038878 0.094732,-0.061859 z m 1.1700463,0.070488 c -0.00636,-0.00636 -0.1047146,0.081479 -0.2187671,0.195804 L 9.3737605,5.9177237 9.5925275,5.7219196 C 9.7128476,5.6142346 9.8061444,5.5206744 9.7998767,5.5140348 Z M 9.1076228,5.7562462 c 0.016714,1.543e-4 0.027341,8.538e-4 0.031974,0.00272 -0.00454,-0.00181 -0.015169,-0.00272 -0.031974,-0.00272 z m -0.9677205,0.027796 c -0.00726,0.00545 -0.015624,0.013081 -0.023254,0.021437 0.00726,-0.00817 0.015533,-0.015714 0.023254,-0.021437 z m 2.4127517,0.05659 -0.0842,0.054864 c -0.0337,0.021891 -0.06985,0.04896 -0.09371,0.069488 0.04442,-0.043056 0.05087,-0.056045 0.03361,-0.056045 -0.01444,0 -0.101543,0.078573 -0.193596,0.1746304 l -0.167346,0.1746312 0.153102,-0.1353352 c 0.07267,-0.064311 0.117441,-0.1046968 0.151613,-0.1365342 -0.03779,0.041875 -0.235917,0.2154244 -0.4240824,0.3751034 0.0054,-0.00545 0.0082,-0.00817 0.0139,-0.014534 L 10.047441,6.2337479 9.9348326,6.3239469 c -0.06195,0.049596 -0.113617,0.1005812 -0.114834,0.1132168 -6.81e-4,0.00726 -3.18e-4,0.011808 7.81e-4,0.015169 -0.029703,0.024798 -0.050867,0.041511 -0.077119,0.062949 0.00926,-0.00817 0.017623,-0.016532 0.021982,-0.021891 0.042965,-0.053865 -0.1053868,0.049687 -0.2386874,0.1666188 -0.068398,0.059951 -0.054319,0.054864 0.054955,-0.019893 0.028068,-0.019166 0.055319,-0.039331 0.081116,-0.058952 -0.00364,0.00272 -0.010082,0.00817 -0.013625,0.011082 -0.1010462,0.079118 -0.1985853,0.1559006 -0.216734,0.1705705 -0.010809,0.00909 -0.074575,0.05332 -0.1549646,0.1089022 0.076664,-0.053774 0.1411123,-0.1027979 0.1413848,-0.1120724 3.542e-4,-0.012081 -0.088927,0.040694 -0.1983748,0.1172136 -0.1094744,0.076483 -0.1990378,0.1450454 -0.1990378,0.1522669 0,0.010991 0.093187,-0.04669 0.1892277,-0.1114729 -0.038787,0.026706 -0.072214,0.049959 -0.1150699,0.079208 -0.08266,0.056409 -0.1611687,0.1108642 -0.2389235,0.1649474 0.074031,-0.051141 0.1341452,-0.099255 0.1341452,-0.1075396 0,-0.00817 -0.06204,0.027341 -0.1377877,0.07948 -0.075757,0.052139 -0.1377968,0.1016712 -0.1377968,0.1101012 0,0.00817 0.060496,-0.026615 0.1348629,-0.077573 C 8.6574981,7.3004874 8.479416,7.4278018 8.3161399,7.54814 c 0.00999,-0.00909 0.021527,-0.021074 0.035789,-0.039331 0.03806,-0.048597 0.03706,-0.049596 -0.011536,-0.011536 -0.029431,0.023162 -0.053593,0.047235 -0.053593,0.053593 0,0.00963 0.00364,0.013081 0.010537,0.010991 C 7.8940392,7.8598688 7.5803948,8.1161961 7.3519264,8.3346091 7.0197244,8.6521948 6.6737518,9.082826 6.533121,9.3537692 c -0.038696,0.074661 -0.066219,0.1302845 -0.098374,0.2020806 0.00954,-0.029156 0.012263,-0.046417 0.00726,-0.051049 -0.016623,-0.016622 -0.1277595,0.232946 -0.157835,0.3542384 l -0.018982,0.076568 0.036515,-0.076569 c 0.016714,-0.034973 0.028977,-0.061949 0.042692,-0.091503 -0.00963,0.023256 -0.017077,0.040967 -0.02825,0.068038 -0.013534,0.032793 -0.033518,0.1092838 -0.054501,0.2035788 2.633e-4,-0.01038 -0.00181,-0.02207 -0.00545,-0.0327 -0.00981,-0.02444 -0.017077,-0.017167 -0.01853,0.01844 -9.085e-4,0.03225 0.00636,0.05033 0.016078,0.04015 0.00181,-0.0018 0.00364,-0.0045 0.00454,-0.0082 -0.018076,0.08275 -0.036698,0.176366 -0.052321,0.268944 -0.055046,0.325981 -0.062495,0.482744 -0.055409,1.170411 l 0.00817,0.794044 0.1537565,0.04751 c -0.015352,-0.0037 -0.030974,-0.0064 -0.046598,-0.0091 -0.1056593,-0.01781 -0.1054413,-0.01753 0.015352,0.02425 0.0674,0.02326 0.1431471,0.04251 0.1684083,0.04278 0.037878,3.46e-4 0.014079,-0.01372 -0.033791,-0.0298 0.1019993,0.02326 0.1995102,0.03034 0.2987929,0.02108 -0.00181,3.63e-4 -0.00272,6e-4 -0.00454,9.09e-4 -0.208848,0.04124 -0.2100198,0.04196 -0.045962,0.02898 0.092625,-0.0072 0.2304122,-0.03461 0.306205,-0.06059 0.075757,-0.02589 0.096449,-0.03897 0.045962,-0.02898 -0.018349,0.0037 -0.075029,0.01481 -0.1113003,0.02198 0.043056,-0.01244 0.086838,-0.0267 0.1322922,-0.04478 l 0.082206,-0.03279 0.010449,-0.938662 c 0.00364,-0.327933 0.00636,-0.541395 0.01417,-0.702899 0.00636,-0.01771 0.00726,-0.04787 0.00364,-0.0744 0.00272,-0.04796 0.00726,-0.08993 0.011991,-0.128523 8.902e-4,0.04605 0.00636,0.0427 0.025343,-0.01762 0.033518,-0.104698 0.033518,-0.185203 0,-0.107176 -0.00364,0.0082 -0.00636,0.01689 -0.00936,0.02643 0.018349,-0.08939 0.045236,-0.164174 0.085657,-0.257698 -0.028522,0.0985 0.00636,0.07285 0.044055,-0.03597 0.018984,-0.054319 0.0218,-0.085383 0.00636,-0.068939 -0.00272,0.00272 -0.00636,0.00817 -0.00926,0.012712 0.00817,-0.018623 0.01526,-0.034333 0.024616,-0.054958 0.00364,-0.00723 0.00726,-0.015259 0.011173,-0.022889 0.00181,0.014714 0.051594,-0.052045 0.1124902,-0.1508321 C 7.6833161,9.3732884 7.968293,9.068083 8.4328508,8.6984659 8.6742904,8.5063678 8.7649165,8.4218644 8.6757801,8.4779003 8.75953,8.4159514 8.8118328,8.3772687 8.8869625,8.3216918 c -0.029612,0.023706 -0.055773,0.045327 -0.075303,0.063133 -0.099137,0.089837 -0.068036,0.069851 0.3254621,-0.2085385 0.172632,-0.1221465 0.3138622,-0.2292591 0.3138622,-0.2380342 0,-0.010721 -0.06195,0.025708 -0.1466439,0.081662 0.042329,-0.028517 0.085112,-0.057044 0.1160236,-0.076118 0.075757,-0.046689 0.1446913,-0.09365 0.1531116,-0.1042962 C 9.5816451,7.8288719 9.7365695,7.7131941 9.9171766,7.5824461 10.052626,7.4844111 10.179495,7.3900966 10.243534,7.3402554 10.179494,7.3902144 10.052626,7.4847286 9.9171716,7.5830121 9.7365647,7.7140508 9.5612167,7.8475784 9.527535,7.8797703 9.493836,7.9119263 9.486932,7.9271863 9.512184,7.9135613 9.591302,7.8709603 10.348921,7.296473 10.461429,7.1937931 l 0.107176,-0.097848 -0.122482,0.086384 c -0.0674,0.047507 -0.140049,0.1034434 -0.161541,0.1243351 0.02153,-0.020892 0.09075,-0.077028 0.153884,-0.1246894 l 0.114825,-0.086747 V 6.4676301 Z m -1.3602275,0.019166 c -0.00545,0.00364 -0.0099,0.00817 -0.012989,0.01308 0.00272,-0.00454 0.00726,-0.00936 0.012989,-0.01308 z M 7.7624099,5.9188413 C 7.7431524,5.9215661 7.6397553,5.9978678 7.2150015,6.3199599 6.7697915,6.6575847 6.3205576,7.0214609 6.2657023,7.0889514 6.2404501,7.120017 6.3713979,7.0207342 6.5566561,6.8683857 6.7419142,6.7160005 7.0898398,6.4443037 7.329826,6.264641 7.5698214,6.0849783 7.7661705,5.930704 7.7661705,5.9218385 c 0,-0.00181 -9.083e-4,-0.00364 -0.00364,-0.00272 z m 0.2682814,0.00726 c -0.00999,0.00954 -0.020529,0.018258 -0.031338,0.025525 0.010718,-0.00726 0.021346,-0.015987 0.031338,-0.025525 z m 2.5400847,0.1463444 c -0.0027,0.00909 -0.0054,0.1497688 -0.0054,0.3871208 0,0.345246 0.0045,0.4864855 0.0099,0.3138625 0.0054,-0.172623 0.0054,-0.4551019 0,-0.6277249 -0.0018,-0.053955 -0.0036,-0.0773 -0.0045,-0.073213 z m -5.4420473,0.00454 c -0.00926,0.015624 -0.019348,0.030157 -0.029794,0.043146 0.010449,-0.012989 0.020529,-0.027523 0.029794,-0.043146 z m 2.6558087,0.041057 c -0.01026,0.00272 -0.02071,0.00454 -0.030974,0.00454 0.01026,0 0.02071,-0.00181 0.030974,-0.00454 z M 7.6143851,6.2320403 c -0.00636,-4.633e-4 -0.013898,0.00181 -0.022164,0.00545 0.00817,-0.00364 0.015805,-0.00636 0.022164,-0.00545 z M 7.4926843,6.3389168 c -0.023708,0.023345 -0.052139,0.044509 -0.078754,0.058498 0.026615,-0.013989 0.055047,-0.035153 0.078754,-0.058498 z m -0.098329,0.067581 c -0.00636,0.00272 -0.012444,0.00454 -0.018258,0.00636 -0.011627,0.00272 -0.02498,0.00726 -0.03915,0.014079 0.01417,-0.00636 0.027523,-0.011263 0.03915,-0.014079 0.00545,-0.00181 0.011899,-0.00364 0.018258,-0.00636 z m 0.9435675,0.1228454 c -0.00636,0.00364 -0.011536,0.00726 -0.015079,0.011354 0.00364,-0.00364 0.00909,-0.00726 0.015079,-0.011354 z m -0.082751,0.061859 c -0.017076,0.00454 -0.031611,0.011808 -0.04133,0.019893 0.00972,-0.00817 0.024254,-0.015442 0.04133,-0.019893 z m -3.8942086,0.023072 c -0.013717,0.00364 -0.052957,0.042511 -0.1480793,0.1439009 L 4.0763409,6.9036203 4.2217951,6.7670861 c 0.080025,-0.07512 0.1454451,-0.140531 0.1454451,-0.1454542 0,-0.00545 -0.00181,-0.00817 -0.00636,-0.00726 z m 2.6677626,0.026161 c -0.028431,0.01526 -0.059496,0.038241 -0.086657,0.062949 0.02716,-0.024707 0.058225,-0.047688 0.086657,-0.062949 z m -1.9535625,0.119911 c -0.00272,0.00364 -0.00364,0.00726 -0.00364,0.011263 9e-6,-0.00364 0.00181,-0.00726 0.00364,-0.011263 z m 2.9372519,0.056227 c -0.036153,0.027069 -0.070124,0.049959 -0.093833,0.062222 0.023708,-0.012263 0.05768,-0.035153 0.093833,-0.062222 z M 4.0670121,6.9342678 3.9698914,7.0414441 c -0.053411,0.058952 -0.138587,0.1588434 -0.1892911,0.2219919 -0.050686,0.06313 -0.080661,0.1147065 -0.066582,0.1144703 0.014079,-2.089e-4 0.055954,-0.044963 0.093179,-0.099518 0.037151,-0.054501 0.1108278,-0.1542742 0.1636847,-0.2216375 z m 2.5135336,0.086747 c -0.032609,0.024071 -0.061405,0.047416 -0.085385,0.069035 0.02398,-0.021619 0.052775,-0.044963 0.085385,-0.069035 z M 5.227194,7.1167008 c -0.029885,0.029249 -0.059224,0.057953 -0.088837,0.087292 0.00545,-0.00454 0.00972,-0.00999 0.014806,-0.014988 0.024526,-0.024162 0.049323,-0.048052 0.074122,-0.072304 z m 2.3642461,0.00909 C 7.5002871,7.2134405 7.3942645,7.3090172 7.3035929,7.3864814 7.3942463,7.3089991 7.5002871,7.2134769 7.5914401,7.1257847 Z m 1.51621,0.012535 c -0.011354,0.011354 -0.024526,0.022436 -0.038605,0.032792 0.014079,-0.010355 0.027251,-0.021528 0.038605,-0.032792 z M 6.1279328,7.2099888 5.890617,7.438866 C 5.7600961,7.5647543 5.6533104,7.671549 5.6533104,7.6761816 c 0,0.022436 0.033155,-0.00817 0.2457452,-0.2288771 z m 1.0163445,0.028886 c 0.00545,0.00272 0.010537,0.00545 0.014806,0.010082 9.1e-6,9e-6 -1.81e-5,4.54e-5 0,6.35e-5 -0.00454,-0.00454 -0.00926,-0.00726 -0.014806,-0.010176 z m 3.0694817,0.01744 c -0.02525,0.024526 -0.05214,0.047325 -0.0763,0.06413 0.02416,-0.016804 0.05114,-0.039604 0.0763,-0.06413 z m -1.656624,0.09802 c -0.02289,-7.085e-4 -0.115633,0.057772 -0.1347447,0.088746 -0.011445,0.01853 0.015352,0.0099 0.059588,-0.018985 0.044146,-0.028976 0.080299,-0.058407 0.080299,-0.065492 0,-0.00272 -0.00181,-0.00364 -0.00545,-0.00454 z m -4.8774891,0.062131 c -0.00272,2.453e-4 -0.00726,0.00181 -0.013443,0.00636 -0.018439,0.011354 -0.048778,0.049142 -0.067308,0.083931 -0.024252,0.045326 -0.024344,0.057408 -3.542e-4,0.042511 0.018439,-0.011354 0.048687,-0.049142 0.067308,-0.083931 0.018168,-0.033972 0.0228,-0.049232 0.013807,-0.048506 z m 4.591731,0.141076 -0.1479611,0.1011996 c -0.081389,0.055682 -0.1554007,0.1131897 -0.1644661,0.1278595 -0.028795,0.04669 0.09416,-0.032882 0.2052601,-0.1327101 z m -4.696927,0.019984 -0.049778,0.061223 c -0.027432,0.0337 -0.063403,0.088746 -0.079935,0.122482 l -0.030067,0.061223 0.049868,-0.061223 c 0.027432,-0.033699 0.063402,-0.088837 0.079935,-0.122482 z m 2.0426173,0.15263 C 5.5977196,7.7108081 5.329438,8.0446357 5.1490849,8.3124266 4.9810128,8.5619775 5.0538716,8.4861129 5.2552438,8.2019079 5.3310005,8.09494 5.4467332,7.9483325 5.5123434,7.8760823 5.5779258,7.803868 5.6250698,7.7381493 5.6170672,7.7301558 Z m 0.2393414,0.057771 c -0.00272,0.00272 -0.00545,0.00454 -0.00817,0.00636 0.00272,-0.00181 0.00545,-0.00454 0.00817,-0.00636 z m -0.060133,0.019258 c -0.011718,0 -0.022981,0.00181 -0.0337,0.00545 -0.010718,0.00364 -0.020983,0.00909 -0.030612,0.015987 0.00963,-0.00726 0.019893,-0.012444 0.030612,-0.015987 0.010718,-0.00364 0.021891,-0.00545 0.0337,-0.00545 z m 2.1143226,0.00181 c -0.010449,-1.908e-4 -0.031792,0.019802 -0.070851,0.063675 -0.058134,0.06531 -0.058044,0.065401 0.010628,0.023162 0.037879,-0.023254 0.068853,-0.052776 0.068853,-0.065582 0,-0.013807 -0.00272,-0.021255 -0.00909,-0.021346 z m -4.5057285,0.028704 c -0.00817,0 -0.030067,0.027523 -0.048052,0.061223 -0.018076,0.033694 -0.025888,0.061226 -0.01744,0.061226 0.00817,0 0.030067,-0.027521 0.048052,-0.061226 0.018076,-0.0337 0.025888,-0.061223 0.01744,-0.061223 z m 3.2270704,0.1151243 c -0.018803,0.014264 -0.038423,0.025257 -0.058134,0.032793 0.019711,-0.00723 0.039331,-0.018624 0.058134,-0.032793 z m 1.0676027,0.043053 c 0,-0.00451 -0.037515,0.024891 -0.1094471,0.085205 -0.1052596,0.08838 -0.1913804,0.1683813 -0.1913804,0.1777465 0,0.020709 0.094505,-0.059046 0.2595612,-0.2190125 0.027796,-0.026892 0.041239,-0.041418 0.041239,-0.043965 z m 1.582347,0.038609 c -0.00272,0.00178 -0.00636,0.00451 -0.0099,0.00639 0.00364,-0.00272 0.00636,-0.00451 0.0099,-0.00639 z m -2.6044959,0.00367 c -0.020347,0.019713 -0.041875,0.039877 -0.061132,0.059046 C 6.4426308,8.2704248 6.2725966,8.4577722 6.1432566,8.6150884 6.2909999,8.4271059 6.4630232,8.2402951 6.677385,8.0380772 Z m 3.8752511,0.010271 -0.114824,0.064579 c -0.06313,0.035518 -0.213017,0.1363431 -0.333065,0.2239718 -0.1200394,0.087657 -0.2485614,0.1799986 -0.2855674,0.2052592 -0.0036,0.00272 -0.0082,0.00545 -0.011809,0.00817 0.00181,-0.00451 9.08e-5,-0.00723 -0.00726,-0.00723 -0.028616,-8.03e-4 -0.4486732,0.2978805 -0.4996226,0.3552527 -0.036425,0.041062 0.075484,-0.031881 0.2416211,-0.1575269 0.070851,-0.053596 0.1474344,-0.1084477 0.1948413,-0.1400038 -0.012172,0.00912 -0.027705,0.019441 -0.036334,0.025981 -0.02825,0.021254 -0.2213923,0.164448 -0.4292863,0.3181045 C 8.8093423,9.2864503 8.4038545,9.6802202 8.2198317,9.9661143 7.9450102,10.393067 7.8886199,10.650611 7.8886199,11.478673 v 0.605234 l 0.154901,-0.0348 c -0.012353,0.0045 -0.02389,0.0091 -0.032428,0.01454 -0.040785,0.02643 -0.040785,0.02952 0,0.02798 0.025252,-9.09e-4 0.073486,-0.01353 0.1071764,-0.02798 l 0.061223,-0.02635 -0.061223,-0.0018 c -0.00726,-2e-4 -0.014897,4.81e-4 -0.0228,0.0018 0.046235,-0.01053 0.1243986,-0.02943 0.1943689,-0.04597 -0.036607,0.01144 -0.064402,0.02198 -0.064402,0.02779 0,0.02689 0.077392,0.01298 0.2602697,-0.04678 0.1091929,-0.0357 0.1402494,-0.05314 0.076574,-0.04297 -0.015897,0.0027 -0.032337,0.0064 -0.048687,0.0091 0.00636,-0.0018 0.011899,-0.0027 0.018076,-0.0045 l 0.1743942,-0.04242 c -0.018439,0.0091 -0.010991,0.01517 0.022073,0.01653 0.032247,9.07e-4 0.050413,-0.0064 0.04024,-0.01608 -0.00636,-0.0064 -0.018349,-0.0082 -0.031792,-0.0082 l 0.086021,-0.0209 0.012444,-0.338924 c -0.00364,0.197803 5.36e-4,0.339687 0.011354,0.328814 0.01308,-0.01317 0.019984,-0.229531 0.01526,-0.480835 l -0.00545,-0.305133 c 0.00454,-0.06931 0.010355,-0.131865 0.017713,-0.184386 0.00272,0.01048 0.00726,0.01489 0.013353,0.0091 0.010176,-0.01017 0.011263,-0.03661 0.00272,-0.05868 -0.00181,-0.0054 -0.00454,-0.0082 -0.00636,-0.0109 0.00909,-0.04723 0.019075,-0.08911 0.032064,-0.127869 -0.00272,0.02326 0.031157,-0.02416 0.08157,-0.115778 C 9.1647773,10.273907 9.6078343,9.8748608 10.300925,9.4041898 10.403704,9.3344228 10.497691,9.2612148 10.509826,9.2415769 10.540526,9.1918899 10.09819,9.5036444 9.7559772,9.762134 9.9212866,9.6356476 10.118681,9.4916382 10.368622,9.3151725 l 0.184205,-0.1300119 v -0.568518 z m -0.183723,0.065124 c -0.0018,-0.00178 -0.01399,0.00723 -0.03824,0.026704 -0.02943,0.023161 -0.05359,0.047235 -0.05359,0.053596 0,0.025163 0.02516,0.00912 0.06513,-0.042057 0.01908,-0.024251 0.02834,-0.036702 0.02671,-0.038242 z m -4.8763444,0.030885 c -0.00545,3.56e-5 -0.012353,0.00178 -0.020075,0.00639 0.00726,-0.00451 0.014352,-0.00639 0.020075,-0.00639 z m 4.7518294,0.067493 c -0.0094,1.824e-4 -0.04969,0.025708 -0.0976,0.062221 -0.05477,0.041785 -0.1546934,0.1143523 -0.2220014,0.161241 -0.06731,0.046868 -0.09824,0.076758 -0.06876,0.066403 0.06068,-0.021348 0.3903544,-0.2648385 0.3903544,-0.2883196 0,-9.086e-4 -6.99e-4,-0.00178 -0.0018,-0.00178 z m 0.326305,0.02335 c -0.0027,0.00817 -0.0054,0.1424479 -0.0054,0.3682264 0,0.3284056 0.0045,0.4627511 0.01008,0.2985483 0.0054,-0.1642027 0.0054,-0.4329011 0,-0.5971039 -0.0018,-0.051322 -0.0036,-0.073488 -0.0045,-0.069673 z m -7.3730734,0.00723 c -0.00545,1.268e-4 -0.014352,0.00912 -0.024616,0.024524 -0.01635,0.025257 -0.029703,0.059675 -0.029703,0.076579 0,0.0168 0.013353,0.00996 0.029703,-0.015354 0.01635,-0.025257 0.029703,-0.059675 0.029703,-0.076579 0,-0.00639 -0.00181,-0.00922 -0.00545,-0.00922 z m 4.185771,0.045694 -0.084204,0.054225 c -0.046326,0.029795 -0.084204,0.059496 -0.084204,0.065942 0,0.032971 0.058498,0.00451 0.1101011,-0.054225 z m 1.2779314,0.085571 c -0.00972,0.00985 -0.018258,0.020342 -0.025071,0.030707 0.00636,-0.010376 0.015351,-0.020709 0.025071,-0.030707 z m 1.435349,0.1447902 c -0.03697,0.031881 -0.07721,0.060859 -0.1122004,0.08184 0.03506,-0.020981 0.07521,-0.049959 0.1122004,-0.08184 z M 7.1298253,8.5276833 6.9810284,8.6824025 C 6.8338574,8.8353543 6.5806638,9.1909918 6.5135276,9.3390811 6.4744686,9.4251031 6.4613886,9.4430035 6.6918096,9.0976503 6.7661126,8.9862503 6.895044,8.8124098 6.9783397,8.7113559 Z m -4.062862,0.027521 c -0.00936,0.00178 -0.021074,0.017439 -0.029703,0.040056 -0.016623,0.043598 -0.013171,0.04714 0.017076,0.017167 0.020892,-0.020803 0.030339,-0.045505 0.020892,-0.054959 -0.00272,-0.00272 -0.00545,-0.00272 -0.00817,-0.00178 z m 1.9291007,0 c -0.00936,0.00178 -0.021074,0.017439 -0.029703,0.040056 -0.016623,0.043598 -0.013172,0.04714 0.017076,0.017167 0.020892,-0.020803 0.030339,-0.045505 0.020892,-0.054959 -0.00272,-0.00272 -0.00545,-0.00272 -0.00817,-0.00178 z m 4.9408196,0.07049 c -0.01381,0.00545 -0.02534,0.00922 -0.03334,0.00922 0.0082,0 0.01953,-0.00367 0.03334,-0.00922 z M 8.296048,8.6504933 c -0.00944,0.00817 -0.019439,0.015532 -0.029522,0.021443 0.010082,-0.00545 0.020165,-0.013174 0.029522,-0.021443 z m -5.2890085,0.062262 c -0.00272,-0.00178 -0.00636,0.00272 -0.013171,0.013897 -0.014807,0.025257 -0.03588,0.08729 -0.04678,0.1377872 -0.012717,0.058773 -0.010176,0.075301 0.00726,0.045967 0.014807,-0.025247 0.03588,-0.08729 0.04678,-0.1377967 0.00817,-0.036702 0.0099,-0.05695 0.00636,-0.059769 z m 6.2561293,0.2148245 c -0.010991,-0.00272 -0.060133,0.027982 -0.1190757,0.074661 -0.0674,0.053324 -0.122482,0.1025913 -0.122482,0.1094465 0,0.024251 0.242684,-0.1557903 0.2438286,-0.1809157 8.17e-5,-0.00178 -7.085e-4,-0.00272 -0.00181,-0.00272 z M 3.0329365,9.0874404 c -0.00272,0.00178 -0.00545,0.00451 -0.00909,0.00817 0.00272,-0.00367 0.00545,-0.00723 0.00909,-0.00817 z m 5.9179232,0.067126 c 3.27e-4,-9.087e-4 -0.00181,-5.272e-4 -0.00545,0.00272 C 8.9118008,9.1816371 8.7601882,9.3217478 8.6085845,9.468765 8.4569807,9.6157728 8.3398307,9.7361199 8.3482511,9.7361566 8.3564257,9.7361838 8.5082389,9.5959798 8.6850767,9.4246284 8.8398051,9.2746862 8.9488526,9.1638584 8.9511507,9.1547751 Z M 5.7252245,9.2598901 c -0.034244,0.070763 -0.069216,0.1479972 -0.100118,0.2209828 0.029976,-0.075028 0.06304,-0.1482602 0.100118,-0.2209828 z m 4.4211615,0.052506 c -0.02198,0.015532 -0.04406,0.032698 -0.06513,0.050683 0.02107,-0.018079 0.04315,-0.035245 0.06513,-0.050683 z M 5.5245153,9.4422906 c 0.00364,0.00178 0.00636,0.00272 0.00936,0.00178 -0.00272,7.996e-4 -0.00636,3.815e-4 -0.00936,-0.00178 z M 2.7575246,9.7309164 c -0.00364,0.00178 -0.00636,0.020531 -0.00726,0.052139 h -5.45e-5 c -6.268e-4,0.050504 0.00545,0.074934 0.014079,0.054225 0.00817,-0.020709 0.00909,-0.062043 9.083e-4,-0.09186 -0.00272,-0.011172 -0.00545,-0.01571 -0.00817,-0.014442 z m 0.1689533,0.042508 c -0.00272,0.025341 -0.00636,0.045327 -0.010718,0.057862 0.00454,-0.012534 0.00817,-0.03252 0.010718,-0.057862 z m 5.3720224,0.044143 c -0.00272,9.086e-4 -0.00909,0.00723 -0.018712,0.018623 -0.03915,0.04605 -0.095713,0.1252798 -0.1257157,0.1760646 -0.094896,0.160652 -0.033882,0.09977 0.083931,-0.083747 0.046598,-0.072576 0.068853,-0.1141424 0.060496,-0.1109365 z m 0.1710425,0.020981 c -0.00817,0.00451 -0.016532,0.00912 -0.024889,0.0109 0.00817,-0.00178 0.016804,-0.00639 0.024889,-0.0109 z m -5.740604,0.1733196 c -0.00364,0.0064 -0.00545,0.04488 -0.00545,0.108013 h -6.36e-5 c -1.727e-4,0.100988 0.00545,0.146072 0.012353,0.100055 0.00726,-0.04597 0.00726,-0.128685 3.543e-4,-0.183722 -0.00272,-0.02062 -0.00454,-0.02825 -0.00726,-0.02435 z m 7.7624652,8.45e-4 c -0.0018,-0.0018 -0.01399,0.0072 -0.03824,0.0267 -0.02943,0.02307 -0.05359,0.04723 -0.05359,0.0536 0,0.02516 0.02516,0.0091 0.06513,-0.04206 0.01907,-0.02425 0.02834,-0.0367 0.02671,-0.03824 z m 0.04351,0.03061 c -0.03888,0 -0.343965,0.219358 -0.503989,0.36236 -0.02607,0.02335 -0.05005,0.04597 -0.07312,0.06831 0.09179,-0.09555 0.1661474,-0.176612 0.1661474,-0.183724 0,-0.02516 -0.3694179,0.345683 -0.4004018,0.401954 -0.01417,0.02571 0.054319,-0.03533 0.1540564,-0.135516 -0.1295854,0.144074 -0.1982112,0.278491 -0.2332372,0.445618 -0.039968,0.190818 -0.055319,0.578093 -0.024071,0.609304 0.012626,0.01263 0.057044,0.0064 0.2405402,-0.04142 -0.02543,0.0095 -0.04306,0.01753 -0.04306,0.02162 0,0.02226 0.03915,0.01454 0.2296494,-0.04569 0.101054,-0.03188 0.165193,-0.05932 0.142521,-0.06086 -0.0045,-3.17e-4 -0.01381,9.09e-4 -0.02262,0.0018 0.06867,-0.0189 0.120702,-0.03307 0.209265,-0.05768 l 0.161296,-0.04478 -0.131275,0.04597 c -0.07966,0.02789 -0.107593,0.04396 -0.06204,0.0356 0.0456,-0.0082 0.117913,-0.02852 0.16076,-0.04478 l 0.07794,-0.0297 -0.0073,-0.6361 -0.0073,-0.636155 -0.0091,0.630178 -0.0073,0.545673 V 10.71172 c 0,-0.367845 -0.0082,-0.66881 -0.01771,-0.66881 z m -5.0816044,0.04478 c -0.00545,-0.0018 -0.00944,0.01553 -0.00944,0.04706 0,0.04215 0.00726,0.05932 0.015442,0.03824 0.00817,-0.02108 0.00817,-0.0555 0,-0.07657 -0.00181,-0.0054 -0.00454,-0.0082 -0.00636,-0.0091 z m 0.7720982,0.02907 c -0.00364,7.27e-4 -0.010537,0.01254 -0.019803,0.03542 -0.014079,0.03488 -0.033428,0.15887 -0.042874,0.275585 l -0.017259,0.212199 0.042511,-0.229658 c 0.036698,-0.198093 0.049142,-0.295778 0.037424,-0.293588 z m 4.1336762,0.0018 c -0.0073,-0.0018 -0.03579,0.01345 -0.07558,0.04179 -0.05305,0.03779 -0.106268,0.08456 -0.11824,0.103943 -0.01199,0.01935 0.02162,0.0045 0.07467,-0.03352 0.05305,-0.03779 0.106268,-0.08448 0.11824,-0.103891 0.0027,-0.0045 0.0027,-0.0072 8.36e-4,-0.0082 z m -1.0778845,0.04414 c -0.068217,0.06995 -0.130412,0.140431 -0.1831872,0.208421 0.050868,-0.06776 0.110174,-0.135808 0.1831872,-0.208421 z m -1.214365,0.03143 c -0.017985,0.0072 -0.084114,0.146489 -0.084022,0.185104 6.37e-5,0.02525 0.020256,-4.46e-4 0.044872,-0.05714 0.024616,-0.05668 0.044236,-0.111791 0.043691,-0.122482 -2.816e-4,-0.0045 -0.00181,-0.0064 -0.00454,-0.0054 z m 0.14946,0.129185 c -0.01199,0.02534 -0.025797,0.04751 -0.041694,0.06749 0.015897,-0.01989 0.029703,-0.04206 0.041694,-0.06749 z m 2.2505025,0.03497 c 0.0036,0.0064 0.0073,0.01298 0.0093,0.02061 0.0027,0.0082 0.0045,0.01744 0.0054,0.02652 -9.08e-4,-0.0091 -0.0027,-0.01808 -0.0054,-0.02652 -0.0027,-0.0072 -0.0054,-0.01454 -0.0092,-0.02061 z m -2.5363787,0.184622 c -0.00454,-6.99e-4 -0.00817,0.01048 -0.00909,0.03279 -9.085e-4,0.03225 0.00636,0.05041 0.016078,0.04024 0.010176,-0.01017 0.011263,-0.03661 0.00272,-0.05868 -0.00364,-0.0092 -0.00726,-0.0139 -0.00981,-0.01426 z m -5.2293841,0.04424 c -0.00364,0.0037 -0.00545,0.1121 -0.00545,0.297357 -4.54e-5,0.269463 0.00454,0.38378 0.010355,0.254058 0.00545,-0.129722 0.00545,-0.350197 5.46e-5,-0.489938 -0.00181,-0.04369 -0.00364,-0.06331 -0.00454,-0.0615 z m 5.2019338,0.112491 c -0.00545,-0.0018 -0.00944,0.01553 -0.00944,0.04706 0,0.04215 0.00726,0.05932 0.015442,0.03824 0.00817,-0.02108 0.00817,-0.0555 0,-0.07657 -0.00181,-0.0054 -0.00454,-0.0082 -0.00636,-0.0091 z m -3.4868133,4.26e-4 c -0.00272,0.0072 -0.00545,0.163104 -0.00545,0.429405 h 5.45e-5 c -1.82e-5,0.387348 0.00454,0.550042 0.00972,0.361523 0.00545,-0.188509 0.00545,-0.505433 6.36e-5,-0.704271 -0.00181,-0.06213 -0.00364,-0.08984 -0.00454,-0.08666 z m 5.2631111,0.08693 c -0.00726,2.54e-4 -0.022527,0.02843 -0.044327,0.08829 -0.020256,0.05559 -0.041511,0.252639 -0.047325,0.437898 l -0.010449,0.336825 0.024526,-0.306205 c 0.013444,-0.168417 0.039604,-0.360534 0.058225,-0.426952 0.023526,-0.08429 0.028431,-0.130176 0.019348,-0.129839 z m -4.2831914,0.04733 c -0.00272,0.0072 -0.00545,0.170361 -0.00545,0.448243 -1.81e-5,0.404199 0.00454,0.57376 0.00963,0.376839 0.00545,-0.196921 0.00545,-0.527625 5.45e-5,-0.734901 -0.00181,-0.06477 -0.00364,-0.09354 -0.00454,-0.09019 z m 2.4801608,0.240295 c -0.00272,0.0064 -0.00545,0.148524 -0.00545,0.391672 -2.72e-5,0.353666 0.00454,0.502554 0.0099,0.330848 0.00545,-0.171706 0.00545,-0.461078 0,-0.643031 -0.00181,-0.05687 -0.00364,-0.0823 -0.00454,-0.07948 z m -5.1431454,0.319186 c -0.019166,3.35e-4 9.085e-4,0.01435 0.072577,0.04188 0.058952,0.02271 0.1347266,0.04142 0.1684083,0.04161 0.033699,1.54e-4 -7.631e-4,-0.01935 -0.076574,-0.04315 -0.086475,-0.02725 -0.145209,-0.0406 -0.1644116,-0.04024 z m 0.3788732,0.0082 c 0.025616,0.0179 0.06304,0.03452 0.1003549,0.0456 -0.038786,-0.01063 -0.073486,-0.02589 -0.1003549,-0.0456 z m 0.1142341,0.04932 c 0.010449,0.0027 0.020801,0.0045 0.030702,0.0064 -0.010449,-0.0018 -0.02071,-0.0037 -0.030702,-0.0064 z m 0.042056,0.0082 c 0.049051,0.0054 0.093351,0.0072 0.1325284,0.0045 -0.042874,0.0037 -0.088655,0.0027 -0.1325284,-0.0045 z m 0.3002826,0.147906 c -0.010628,-4.44e-4 -0.022709,0.0018 -0.033791,0.0064 -0.024435,0.0099 -0.017168,0.01707 0.01853,0.01853 0.032247,9.08e-4 0.050323,-0.0064 0.040149,-0.01608 -0.00545,-0.0054 -0.014261,-0.0082 -0.024888,-0.0082 z m 6.1547662,0 c -0.010628,-4.44e-4 -0.022709,0.0018 -0.033791,0.0064 -0.024435,0.0099 -0.017168,0.01707 0.018439,0.01853 0.032247,9.08e-4 0.050323,-0.0064 0.040149,-0.01608 -0.00545,-0.0054 -0.014262,-0.0082 -0.024889,-0.0082 z m -5.2488772,0.2464 c -0.049233,7.18e-4 -0.046235,0.0054 0.015351,0.02543 0.1046969,0.03352 0.1852037,0.03352 0.1071764,0 -0.0337,-0.01444 -0.088837,-0.02589 -0.1224821,-0.02543 z m 3.8428959,0.02425 c 0,0.01417 -0.043419,0.04087 -0.096412,0.0594 -0.00364,9.08e-4 -0.00636,0.0018 -0.00954,0.0027 0.055682,-0.02117 0.1059774,-0.04787 0.1059774,-0.0624 z m -0.3001101,0.05623 c 0.013172,0.01326 0.031519,0.02434 0.048052,0.03079 -0.01744,-0.0054 -0.032247,-0.01499 -0.048052,-0.03079 z" /></g><metadata
     id="metadata132"><rdf:RDF><cc:Work
         rdf:about="" /></rdf:RDF></metadata></svg>
